<svg width="124" height="115" viewBox="0 0 124 115" fill="none" xmlns="http://www.w3.org/2000/svg">
<rect width="124" height="115" rx="8" fill="#B2C2EA"/>
<path d="M39.5 83V58L43.4375 46.4375C43.7708 45.3542 44.3958 44.51 45.3125 43.905C46.2292 43.3017 47.2083 43 48.25 43C48.5833 43 48.9167 43.0308 49.25 43.0925C49.5833 43.1558 49.9167 43.2708 50.25 43.4375L60.625 48H67V53H59.5L52.75 50.0625L49.5 59.875V83H39.5ZM54.5 75.5V70.5H84.5V75.5H54.5ZM80.75 68C79.7083 68 78.8233 67.635 78.095 66.905C77.365 66.1767 77 65.2917 77 64.25C77 63.2083 77.365 62.3233 78.095 61.595C78.8233 60.865 79.7083 60.5 80.75 60.5C81.7917 60.5 82.6767 60.865 83.405 61.595C84.135 62.3233 84.5 63.2083 84.5 64.25C84.5 65.2917 84.135 66.1767 83.405 66.905C82.6767 67.635 81.7917 68 80.75 68ZM64.5 68C63.125 68 61.9483 67.51 60.97 66.53C59.99 65.5517 59.5 64.375 59.5 63V60.5H54.5V55.5H62C62.7083 55.5 63.3025 55.7392 63.7825 56.2175C64.2608 56.6975 64.5 57.2917 64.5 58V60.5H69.5V55.5H74.5V63C74.5 64.375 74.0108 65.5517 73.0325 66.53C72.0525 67.51 70.875 68 69.5 68H64.5ZM52 40.5C50.625 40.5 49.4483 40.01 48.47 39.03C47.49 38.0517 47 36.875 47 35.5C47 34.125 47.49 32.9475 48.47 31.9675C49.4483 30.9892 50.625 30.5 52 30.5C53.375 30.5 54.5525 30.9892 55.5325 31.9675C56.5108 32.9475 57 34.125 57 35.5C57 36.875 56.5108 38.0517 55.5325 39.03C54.5525 40.01 53.375 40.5 52 40.5Z" fill="#3A5088"/>
</svg>
