<svg width="10" height="10" viewBox="0 0 10 10" fill="none" xmlns="http://www.w3.org/2000/svg">
<rect width="10" height="10" rx="5" fill="white"/>
<path d="M3 7.5C2.8625 7.5 2.74483 7.44851 2.647 7.34553C2.549 7.24237 2.5 7.11842 2.5 6.97368V4.07895C2.5 3.93421 2.549 3.81035 2.647 3.70737C2.74483 3.60421 2.8625 3.55263 3 3.55263H4V3.02632C4 2.88158 4.049 2.75763 4.147 2.65447C4.24483 2.55149 4.3625 2.5 4.5 2.5H5.5C5.6375 2.5 5.75525 2.55149 5.85325 2.65447C5.95108 2.75763 6 2.88158 6 3.02632V3.55263H7C7.1375 3.55263 7.25525 3.60421 7.35325 3.70737C7.45108 3.81035 7.5 3.93421 7.5 4.07895V6.97368C7.5 7.11842 7.45108 7.24237 7.35325 7.34553C7.25525 7.44851 7.1375 7.5 7 7.5H3ZM4.5 3.55263H5.5V3.02632H4.5V3.55263Z" fill="#4970C7"/>
</svg>
