<svg width="24" height="24" viewBox="0 0 24 24" fill="none" xmlns="http://www.w3.org/2000/svg">
<path d="M5 9.6L12.2 4L19.4 9.6V18.4C19.4 18.8243 19.2314 19.2313 18.9314 19.5314C18.6313 19.8314 18.2243 20 17.8 20H6.6C6.17565 20 5.76869 19.8314 5.46863 19.5314C5.16857 19.2313 5 18.8243 5 18.4V9.6Z" fill="#3A5088" stroke="#3A5088" stroke-width="2" stroke-linecap="round" stroke-linejoin="round"/>
<mask id="path-2-outside-1_1353_36124" maskUnits="userSpaceOnUse" x="8.7998" y="11" width="7" height="10" fill="black">
<rect fill="white" x="8.7998" y="11" width="7" height="10"/>
<path d="M9.7998 20V12H14.5998V20"/>
</mask>
<path d="M9.7998 20V12H14.5998V20" fill="white"/>
<path d="M8.7998 20C8.7998 20.5523 9.24752 21 9.7998 21C10.3521 21 10.7998 20.5523 10.7998 20H8.7998ZM9.7998 12V11C9.24752 11 8.7998 11.4477 8.7998 12H9.7998ZM14.5998 12H15.5998C15.5998 11.4477 15.1521 11 14.5998 11V12ZM13.5998 20C13.5998 20.5523 14.0475 21 14.5998 21C15.1521 21 15.5998 20.5523 15.5998 20H13.5998ZM10.7998 20V12H8.7998V20H10.7998ZM9.7998 13H14.5998V11H9.7998V13ZM13.5998 12V20H15.5998V12H13.5998Z" fill="#3A5088" mask="url(#path-2-outside-1_1353_36124)"/>
<path d="M19 19.5H5" stroke="#3A5088"/>
</svg>
