<svg width="10" height="10" viewBox="0 0 10 10" fill="none" xmlns="http://www.w3.org/2000/svg">
<path fill-rule="evenodd" clip-rule="evenodd" d="M5 0C2.243 0 0 2.243 0 5C0 7.757 2.243 10 5 10C7.757 10 10 7.757 10 5C10 2.243 7.757 0 5 0V0Z" fill="white"/>
<path fill-rule="evenodd" clip-rule="evenodd" d="M6.69173 5.80817C6.93609 6.05253 6.93609 6.44752 6.69173 6.69188C6.56987 6.81375 6.40988 6.875 6.2499 6.875C6.08991 6.875 5.92992 6.81375 5.80806 6.69188L5 5.88379L4.19194 6.69188C4.07008 6.81375 3.91009 6.875 3.7501 6.875C3.59012 6.875 3.43013 6.81375 3.30827 6.69188C3.06391 6.44752 3.06391 6.05253 3.30827 5.80817L4.11632 5.00008L3.30827 4.19199C3.06391 3.94762 3.06391 3.55264 3.30827 3.30827C3.55262 3.06391 3.94759 3.06391 4.19194 3.30827L5 4.11636L5.80806 3.30827C6.05241 3.06391 6.44738 3.06391 6.69173 3.30827C6.93609 3.55264 6.93609 3.94762 6.69173 4.19199L5.88368 5.00008L6.69173 5.80817Z" fill="#BB4949"/>
</svg>
