<svg width="124" height="115" viewBox="0 0 124 115" fill="none" xmlns="http://www.w3.org/2000/svg">
<rect width="124" height="115" rx="8" fill="#EBEBEB"/>
<path fill-rule="evenodd" clip-rule="evenodd" d="M50.7499 39.875C50.7499 39.3275 56.3949 35.5 61.9999 35.5C67.6049 35.5 73.2499 39.3287 73.2499 39.875C73.2499 41.825 73.0424 42.98 72.8674 43.6088C72.7512 44.0213 72.3649 44.25 71.9362 44.25H52.0637C51.6349 44.25 51.2487 44.0213 51.1324 43.6088C50.9574 42.98 50.7499 41.825 50.7499 39.875ZM60.1249 39.25C59.7934 39.25 59.4755 39.3817 59.241 39.6161C59.0066 39.8505 58.8749 40.1685 58.8749 40.5C58.8749 40.8315 59.0066 41.1495 59.241 41.3839C59.4755 41.6183 59.7934 41.75 60.1249 41.75H63.8749C64.2064 41.75 64.5244 41.6183 64.7588 41.3839C64.9932 41.1495 65.1249 40.8315 65.1249 40.5C65.1249 40.1685 64.9932 39.8505 64.7588 39.6161C64.5244 39.3817 64.2064 39.25 63.8749 39.25H60.1249ZM52.0474 52.0225C47.8849 50.735 48.9349 48.435 50.5224 46.75H73.8249C75.0949 48.3725 75.7762 50.5612 71.9374 51.8713C72.0943 53.2638 71.9568 54.6737 71.5338 56.0097C71.1107 57.3457 70.4116 58.5778 69.4818 59.6262C68.552 60.6746 67.4122 61.5159 66.1363 62.0955C64.8604 62.6751 63.477 62.98 62.0757 62.9906C60.6744 63.0012 59.2865 62.7171 58.0021 62.1568C56.7176 61.5965 55.5653 60.7725 54.6197 59.7383C53.6742 58.704 52.9566 57.4826 52.5135 56.1531C52.0703 54.8237 51.9115 53.416 52.0474 52.0212V52.0225ZM61.6599 53C64.9624 53 67.5224 52.825 69.4849 52.52C69.5494 53.5391 69.4051 54.5607 69.0609 55.5221C68.7166 56.4835 68.1797 57.3645 67.4829 58.1111C66.7862 58.8576 65.9443 59.454 65.0089 59.8637C64.0735 60.2734 63.0643 60.4878 62.0431 60.4937C61.0219 60.4996 60.0103 60.2968 59.0703 59.8979C58.1302 59.499 57.2815 58.9124 56.5762 58.1739C55.8709 57.4354 55.3238 56.5607 54.9685 55.6033C54.6132 54.6459 54.4572 53.6261 54.5099 52.6062C56.3387 52.8587 58.6824 53 61.6599 53ZM72.5212 71.25C71.3905 69.486 69.8342 68.0348 67.9956 67.03C66.157 66.0251 64.0952 65.499 61.9999 65.5C59.9038 65.4986 57.841 66.0249 56.0017 67.0302C54.1624 68.0355 52.6056 69.4875 51.4749 71.2525C51.0553 70.6062 50.4108 70.1385 49.6662 69.94L47.2512 69.2938C46.4507 69.0792 45.5978 69.1913 44.88 69.6055C44.1622 70.0197 43.6384 70.7021 43.4237 71.5025L42.4537 75.125C42.3474 75.5214 42.3203 75.9349 42.3739 76.3418C42.4275 76.7487 42.5607 77.1411 42.7659 77.4965C42.9711 77.8519 43.2443 78.1634 43.57 78.4133C43.8956 78.6631 44.2672 78.8463 44.6637 78.9525L47.0774 79.6C47.4834 79.7094 47.9074 79.7354 48.3237 79.6765C48.74 79.6177 49.1402 79.4751 49.4999 79.2575C49.5009 79.589 49.6336 79.9066 49.8687 80.1403C50.1038 80.374 50.4222 80.5047 50.7537 80.5037C51.0852 80.5028 51.4027 80.3701 51.6365 80.135C51.8702 79.8999 52.0009 79.5815 51.9999 79.25V78C51.9999 77.5238 52.0337 77.055 52.0974 76.5962L58.6024 78.34C58.9044 78.9863 59.3844 79.5331 59.9862 79.9162C60.588 80.2992 61.2866 80.5027 61.9999 80.5027C62.7133 80.5027 63.4119 80.2992 64.0136 79.9162C64.6154 79.5331 65.0955 78.9863 65.3974 78.34L71.9024 76.5962C71.9662 77.055 71.9999 77.5238 71.9999 78V79.25C71.9983 79.5815 72.1284 79.9001 72.3616 80.1357C72.5949 80.3713 72.9122 80.5046 73.2437 80.5063C73.5752 80.5079 73.8938 80.3778 74.1294 80.1446C74.365 79.9113 74.4983 79.594 74.4999 79.2625C75.1999 79.6825 76.0649 79.8287 76.9162 79.6L79.3312 78.9538C79.7276 78.8476 80.0993 78.6643 80.4249 78.4145C80.7505 78.1647 81.0237 77.8532 81.229 77.4977C81.4342 77.1423 81.5674 76.75 81.6209 76.3431C81.6745 75.9361 81.6474 75.5227 81.5412 75.1263L80.5699 71.5038C80.3552 70.7033 79.8313 70.021 79.1136 69.6068C78.3958 69.1925 77.5429 69.0804 76.7424 69.295L74.3274 69.9413C73.5845 70.1391 72.9411 70.6048 72.5212 71.2487V71.25ZM52.7537 74.1837C53.4289 72.5507 54.5244 71.1255 55.9289 70.053C57.3334 68.9805 58.9967 68.2989 60.7499 68.0775V73.2138C60.1897 73.4125 59.6847 73.7412 59.2761 74.1729C58.8676 74.6047 58.5673 75.1272 58.3999 75.6975L52.7537 74.185V74.1837ZM71.2462 74.1837C70.5708 72.5508 69.4753 71.1256 68.0708 70.0532C66.6664 68.9807 65.0031 68.299 63.2499 68.0775V73.2138C64.3799 73.6138 65.2624 74.5387 65.5999 75.6975L71.2462 74.185V74.1837ZM61.9999 78C62.3314 78 62.6494 77.8683 62.8838 77.6339C63.1182 77.3995 63.2499 77.0815 63.2499 76.75C63.2499 76.4185 63.1182 76.1005 62.8838 75.8661C62.6494 75.6317 62.3314 75.5 61.9999 75.5C61.6684 75.5 61.3505 75.6317 61.116 75.8661C60.8816 76.1005 60.7499 76.4185 60.7499 76.75C60.7499 77.0815 60.8816 77.3995 61.116 77.6339C61.3505 77.8683 61.6684 78 61.9999 78Z" fill="#B8B8B8"/>
</svg>
