<svg width="24" height="24" viewBox="0 0 24 24" fill="none" xmlns="http://www.w3.org/2000/svg">
<path fill-rule="evenodd" clip-rule="evenodd" d="M7.07063 13.5528L11.9861 8.63812L14.3454 10.997L9.44481 15.9021L6.8396 16.1392L7.07063 13.5528ZM14.8634 5.76124L17.2219 8.11839L15.5171 9.82457L13.1587 7.46567L14.8634 5.76124ZM5.87524 17.98C5.90149 17.98 5.92774 17.9792 5.95487 17.9765L9.60409 17.6449C10.0049 17.6082 10.3812 17.4323 10.6656 17.1471L18.539 9.27502C19.1761 8.6363 19.1498 7.57147 18.4795 6.90037H18.4786L16.0825 4.50472C15.435 3.85812 14.3201 3.82749 13.7057 4.44347L5.83323 12.3155C5.54882 12.5999 5.37205 12.977 5.33529 13.3769L5.00362 17.0263C4.98 17.2844 5.07276 17.5399 5.25653 17.7237C5.42105 17.889 5.64421 17.98 5.87524 17.98Z" fill="#3A5088"/>
<path fill-rule="evenodd" clip-rule="evenodd" d="M18.125 18.3979H5.875C5.39375 18.3979 5 18.7583 5 19.1988C5 19.6393 5.39375 19.9997 5.875 19.9997H18.125C18.6063 19.9997 19 19.6393 19 19.1988C19 18.7583 18.6063 18.3979 18.125 18.3979Z" fill="#3A5088"/>
</svg>
