<svg width="124" height="115" viewBox="0 0 124 115" fill="none" xmlns="http://www.w3.org/2000/svg">
<rect width="124" height="115" rx="8" fill="#B2C2EA"/>
<path d="M50.25 80.5C48.6667 80.5 47.3125 79.9267 46.1875 78.78C45.0625 77.635 44.5 76.2708 44.5 74.6875V51.5L39.9375 40.5H34.5V35.5H43.3125L47.4375 45.5H84.375C85.3333 45.5 86.0625 45.8958 86.5625 46.6875C87.0625 47.4792 87.0833 48.2917 86.625 49.125L79.5 63.0625C81.625 63.3958 83.4067 64.375 84.845 66C86.2817 67.625 87 69.5417 87 71.75C87 74.1667 86.1567 76.2292 84.47 77.9375C82.7817 79.6458 80.7292 80.5 78.3125 80.5C75.8542 80.5 73.7817 79.6458 72.095 77.9375C70.4067 76.2292 69.5625 74.1667 69.5625 71.75C69.5625 70.9167 69.6667 70.1458 69.875 69.4375C70.0833 68.7292 70.375 68.0417 70.75 67.375L62.5625 66.625L55.0625 77.875C54.5208 78.7083 53.8225 79.3542 52.9675 79.8125C52.1142 80.2708 51.2083 80.5 50.25 80.5ZM50.3125 75.4375C50.3958 75.4375 50.5833 75.3333 50.875 75.125L56.9375 66.125C54.8958 65.9167 53.2917 65.4267 52.125 64.655C50.9583 63.885 50.0833 63.0833 49.5 62.25V74.75C49.5 74.9583 49.5833 75.125 49.75 75.25C49.9167 75.375 50.1042 75.4375 50.3125 75.4375ZM78.25 75.5C79.3333 75.5 80.2292 75.135 80.9375 74.405C81.6458 73.6767 82 72.7917 82 71.75C82 70.6667 81.6458 69.7708 80.9375 69.0625C80.2292 68.3542 79.3333 68 78.25 68C77.2083 68 76.3233 68.3542 75.595 69.0625C74.865 69.7708 74.5 70.6667 74.5 71.75C74.5 72.7917 74.865 73.6767 75.595 74.405C76.3233 75.135 77.2083 75.5 78.25 75.5Z" fill="#3A5088"/>
</svg>
