<svg width="16" height="16" viewBox="0 0 16 16" fill="none" xmlns="http://www.w3.org/2000/svg">
<path d="M8 4C7.77333 4 7.5832 4.0768 7.4296 4.2304C7.27653 4.38347 7.2 4.57333 7.2 4.8C7.2 5.02667 7.27653 5.2168 7.4296 5.3704C7.5832 5.52347 7.77333 5.6 8 5.6C8.22667 5.6 8.41653 5.52347 8.5696 5.3704C8.7232 5.2168 8.8 5.02667 8.8 4.8C8.8 4.57333 8.7232 4.38347 8.5696 4.2304C8.41653 4.0768 8.22667 4 8 4ZM8 -2.38419e-07C9.10667 -2.38419e-07 10.1467 0.210133 11.12 0.6304C12.0933 1.05013 12.94 1.62 13.66 2.34C14.38 3.06 14.9499 3.90667 15.3696 4.88C15.7899 5.85333 16 6.89333 16 8C16 9.10667 15.7899 10.1467 15.3696 11.12C14.9499 12.0933 14.38 12.94 13.66 13.66C12.94 14.38 12.0933 14.9501 11.12 15.3704C10.1467 15.7901 9.10667 16 8 16C6.89333 16 5.85333 15.7901 4.88 15.3704C3.90667 14.9501 3.06 14.38 2.34 13.66C1.62 12.94 1.05013 12.0933 0.6304 11.12C0.210133 10.1467 -2.38419e-07 9.10667 -2.38419e-07 8C-2.38419e-07 6.89333 0.210133 5.85333 0.6304 4.88C1.05013 3.90667 1.62 3.06 2.34 2.34C3.06 1.62 3.90667 1.05013 4.88 0.6304C5.85333 0.210133 6.89333 -2.38419e-07 8 -2.38419e-07ZM8 7.2C7.77333 7.2 7.5832 7.2768 7.4296 7.4304C7.27653 7.58347 7.2 7.77333 7.2 8L7.2 11.2C7.2 11.4267 7.27653 11.6168 7.4296 11.7704C7.5832 11.9235 7.77333 12 8 12C8.22667 12 8.41653 11.9235 8.5696 11.7704C8.7232 11.6168 8.8 11.4267 8.8 11.2V8C8.8 7.77333 8.7232 7.58347 8.5696 7.4304C8.41653 7.2768 8.22667 7.2 8 7.2Z" fill="#A8B3BD"/>
</svg>
