<svg width="24" height="24" viewBox="0 0 24 24" fill="none" xmlns="http://www.w3.org/2000/svg">
<path d="M18.0027 8.00106C18.0027 6.40948 17.3704 4.88309 16.245 3.75767C15.1196 2.63225 13.5932 2 12.0016 2C10.41 2 8.88362 2.63225 7.7582 3.75767C6.63279 4.88309 6.00053 6.40948 6.00053 8.00106C6.00053 15.0023 3 17.0027 3 17.0027H21.0032C21.0032 17.0027 18.0027 15.0023 18.0027 8.00106Z" stroke="black" stroke-width="2" stroke-linecap="round" stroke-linejoin="round"/>
<path d="M13.7321 21.0039C13.5563 21.307 13.3039 21.5587 13.0002 21.7336C12.6965 21.9085 12.3522 22.0005 12.0018 22.0005C11.6513 22.0005 11.3071 21.9085 11.0034 21.7336C10.6997 21.5587 10.4473 21.307 10.2715 21.0039" stroke="black" stroke-width="2" stroke-linecap="round" stroke-linejoin="round"/>
</svg>
