<svg width="48" height="48" viewBox="0 0 48 48" fill="none" xmlns="http://www.w3.org/2000/svg">
<rect width="48" height="48" rx="4" fill="#B2C2EA"/>
<path fill-rule="evenodd" clip-rule="evenodd" d="M20 18C20 17.2044 20.3161 16.4413 20.8787 15.8787C21.4413 15.3161 22.2044 15 23 15H25C25.7956 15 26.5587 15.3161 27.1213 15.8787C27.6839 16.4413 28 17.2044 28 18V33H20V18ZM18 19H17C16.2044 19 15.4413 19.3161 14.8787 19.8787C14.3161 20.4413 14 21.2044 14 22V30C14 30.7956 14.3161 31.5587 14.8787 32.1213C15.4413 32.6839 16.2044 33 17 33H18V19ZM30 33H31C31.7956 33 32.5587 32.6839 33.1213 32.1213C33.6839 31.5587 34 30.7956 34 30V22C34 21.2044 33.6839 20.4413 33.1213 19.8787C32.5587 19.3161 31.7956 19 31 19H30V33ZM22 19H26V18C26 17.7348 25.8946 17.4804 25.7071 17.2929C25.5196 17.1054 25.2652 17 25 17H23C22.7348 17 22.4804 17.1054 22.2929 17.2929C22.1054 17.4804 22 17.7348 22 18V19Z" fill="#3A5088"/>
</svg>
