<svg width="48" height="48" viewBox="0 0 48 48" fill="none" xmlns="http://www.w3.org/2000/svg">
<rect width="48" height="48" rx="4" fill="#EBEBEB"/>
<path d="M24 15C26.21 15 28 16.79 28 19C28 21.21 26.21 23 24 23C21.79 23 20 21.21 20 19C20 16.79 21.79 15 24 15ZM28 25.54C28 26.6 27.72 29.07 25.81 31.83L25 27L25.94 25.12C25.32 25.05 24.67 25 24 25C23.33 25 22.68 25.05 22.06 25.12L23 27L22.19 31.83C20.28 29.07 20 26.6 20 25.54C17.61 26.24 16 27.5 16 29V33H32V29C32 27.5 30.4 26.24 28 25.54Z" fill="#B8B8B8"/>
</svg>
