<svg width="24" height="24" viewBox="0 0 24 24" fill="none" xmlns="http://www.w3.org/2000/svg">
<path d="M19.2222 19.9998V18.2221C19.2222 17.2791 18.8476 16.3747 18.1808 15.7079C17.514 15.0411 16.6097 14.6665 15.6667 14.6665H8.55556C7.61256 14.6665 6.70819 15.0411 6.0414 15.7079C5.3746 16.3747 5 17.2791 5 18.2221V19.9998" fill="#3A5088"/>
<path d="M19.2222 19.9998V18.2221C19.2222 17.2791 18.8476 16.3747 18.1808 15.7079C17.514 15.0411 16.6097 14.6665 15.6667 14.6665H8.55556C7.61256 14.6665 6.70819 15.0411 6.0414 15.7079C5.3746 16.3747 5 17.2791 5 18.2221V19.9998H19.2222Z" stroke="#3A5088" stroke-width="2" stroke-linecap="round" stroke-linejoin="round"/>
<path d="M12.1102 11.1111C14.0739 11.1111 15.6658 9.51924 15.6658 7.55556C15.6658 5.59188 14.0739 4 12.1102 4C10.1466 4 8.55469 5.59188 8.55469 7.55556C8.55469 9.51924 10.1466 11.1111 12.1102 11.1111Z" fill="#3A5088" stroke="#3A5088" stroke-width="2" stroke-linecap="round" stroke-linejoin="round"/>
</svg>
