<svg width="72" height="72" viewBox="0 0 72 72" fill="none" xmlns="http://www.w3.org/2000/svg">
<rect width="72" height="72" rx="36" fill="#D9D9D9"/>
<path d="M54.0556 55.9998V51.5554C54.0556 49.1979 53.119 46.937 51.4521 45.27C49.7851 43.603 47.5241 42.6665 45.1667 42.6665H27.3889C25.0314 42.6665 22.7705 43.603 21.1035 45.27C19.4365 46.937 18.5 49.1979 18.5 51.5554V55.9998" fill="#FAFAFA"/>
<path d="M54.0556 55.9998V51.5554C54.0556 49.1979 53.1191 46.937 51.4521 45.27C49.7851 43.603 47.5241 42.6665 45.1667 42.6665H27.3889C25.0314 42.6665 22.7705 43.603 21.1035 45.27C19.4365 46.937 18.5 49.1979 18.5 51.5554V55.9998H54.0556Z" stroke="#FAFAFA" stroke-width="2" stroke-linecap="round" stroke-linejoin="round"/>
<path d="M36.2776 33.7778C41.1868 33.7778 45.1665 29.7981 45.1665 24.8889C45.1665 19.9797 41.1868 16 36.2776 16C31.3684 16 27.3887 19.9797 27.3887 24.8889C27.3887 29.7981 31.3684 33.7778 36.2776 33.7778Z" fill="#FAFAFA" stroke="#FAFAFA" stroke-width="2" stroke-linecap="round" stroke-linejoin="round"/>
</svg>
