<svg width="24" height="24" viewBox="0 0 24 24" fill="none" xmlns="http://www.w3.org/2000/svg">
<path d="M19.7041 10.6844C20.0986 11.1716 20.0986 11.8292 19.7041 12.3156C18.4616 13.8469 15.4805 17 12.0001 17C8.51971 17 5.53864 13.8469 4.29611 12.3156C4.10419 12.0823 4 11.7954 4 11.5C4 11.2046 4.10419 10.9177 4.29611 10.6844C5.53864 9.15307 8.51971 6 12.0001 6C15.4805 6 18.4616 9.15307 19.7041 10.6844V10.6844Z" stroke="#9E9E9E" stroke-width="2" stroke-linecap="round" stroke-linejoin="round"/>
<path d="M12.0001 14.2814C13.379 14.2814 14.4968 13.227 14.4968 11.9264C14.4968 10.6258 13.379 9.57141 12.0001 9.57141C10.6212 9.57141 9.50342 10.6258 9.50342 11.9264C9.50342 13.227 10.6212 14.2814 12.0001 14.2814Z" stroke="#9E9E9E" stroke-width="2" stroke-linecap="round" stroke-linejoin="round"/>
</svg>
