<svg width="14" height="14" viewBox="0 0 14 14" fill="none" xmlns="http://www.w3.org/2000/svg">
<path fill-rule="evenodd" clip-rule="evenodd" d="M10.0775 12.0571C9.9853 12.0571 9.89255 12.0355 9.80739 11.9912L6.83297 10.4372L3.85914 11.9912C3.66197 12.0932 3.42397 12.0757 3.24547 11.9451C3.0658 11.8144 2.97655 11.5933 3.01447 11.3746L3.58089 8.09158L1.17755 5.767C1.01772 5.61242 0.959971 5.38025 1.02822 5.16792C1.09647 4.95675 1.27905 4.80217 1.49955 4.77067L4.82455 4.28767L6.31089 1.2975C6.50805 0.900833 7.15847 0.900833 7.35564 1.2975L8.84197 4.28767L12.167 4.77067C12.3875 4.80217 12.5701 4.95675 12.6383 5.16792C12.7066 5.38025 12.6488 5.61242 12.489 5.767L10.0856 8.09158L10.6521 11.3746C10.69 11.5933 10.6001 11.8144 10.4211 11.9451C10.3196 12.0197 10.1988 12.0571 10.0775 12.0571Z" fill="#343C44"/>
</svg>
